<?xml version="1.0" ?><svg contentScriptType="text/ecmascript" contentStyleType="text/css" enable-background="new 0 0 2048 2048" height="2048px" id="Layer_1" preserveAspectRatio="xMidYMid meet" version="1.1" viewBox="0.0 0 1536.0 2048" width="1536.0px" xml:space="preserve" xmlns="http://www.w3.org/2000/svg" xmlns:xlink="http://www.w3.org/1999/xlink" zoomAndPan="magnify"><path d="M256,1472c0-17.333-6.333-32.333-19-45s-27.667-19-45-19s-32.333,6.333-45,19s-19,27.667-19,45s6.333,32.333,19,45  s27.667,19,45,19s32.333-6.333,45-19S256,1489.333,256,1472z M1408,896c0-34-13-63.833-39-89.5s-55.667-38.5-89-38.5H928  c0-38.667,16-91.833,48-159.5s48-121.167,48-160.5c0-65.333-10.667-113.667-32-145s-64-47-128-47c-17.333,17.333-30,45.667-38,85  s-18.167,81.167-30.5,125.5S763.333,547.333,736,576c-14.667,15.333-40.333,45.667-77,91c-2.667,3.333-10.333,13.333-23,30  s-23.167,30.333-31.5,41s-19.833,24.833-34.5,42.5s-28,32.333-40,44S505.167,848,491.5,860s-27,21-40,27s-24.833,9-35.5,9h-32v640  h32c8.667,0,19.167,1,31.5,3s23.333,4.167,33,6.5s22.333,6,38,11c15.667,5,27.333,8.833,35,11.5s19.5,6.833,35.5,12.5  s25.667,9.167,29,10.5c140.667,48.667,254.667,73,342,73h121c128,0,192-55.667,192-167c0-17.333-1.667-36-5-56  c20-10.667,35.833-28.167,47.5-52.5s17.5-48.833,17.5-73.5s-6-47.667-18-69c35.333-33.333,53-73,53-119  c0-16.667-3.333-35.167-10-55.5s-15-36.167-25-47.5c21.333-0.667,39.167-16.333,53.5-47S1408,919.333,1408,896z M1536,895  c0,59.333-16.333,113.667-49,163c6,22,9,45,9,69c0,51.333-12.667,99.333-38,144c2,14,3,28.333,3,43c0,67.333-20,126.667-60,178  c0.667,92.667-27.667,165.833-85,219.5s-133,80.5-227,80.5h-36h-93c-64,0-127.167-7.5-189.5-22.5S636,1732.667,554,1704  c-77.333-26.667-123.333-40-138-40H128c-35.333,0-65.5-12.5-90.5-37.5S0,1571.333,0,1536V896c0-35.333,12.5-65.5,37.5-90.5  S92.667,768,128,768h274c24-16,69.667-67.667,137-155c38.667-50,74.333-92.667,107-128c16-16.667,27.833-45.167,35.5-85.5  S699.333,317,712,273s33.333-80,62-108c26-24.667,56-37,90-37c56,0,106.333,10.833,151,32.5c44.667,21.667,78.667,55.5,102,101.5  s35,108,35,186c0,62-16,126-48,192h176c69.333,0,129.333,25.333,180,76S1536,826.333,1536,895z"/></svg>